<svg width="813" height="813" viewBox="0 0 813 813" fill="none" xmlns="http://www.w3.org/2000/svg">
<rect y="407.294" width="192" height="191" rx="95.5" transform="rotate(-45 0 407.294)" fill="#FB435F"/>
<path d="M270.822 676.702L135.057 540.937L202.232 473.762C239.723 436.272 300.507 436.272 337.997 473.762V473.762C375.487 511.252 375.487 572.036 337.997 609.526L270.822 676.702Z" fill="#5A7DDB"/>
<path d="M340.825 748.119C301.773 709.067 301.773 645.75 340.825 606.698L405.879 541.644L470.226 605.991C509.278 645.043 509.278 708.36 470.226 747.412L405.172 812.466L340.825 748.119Z" fill="#F38033"/>
<path d="M171.12 306.884C151.594 287.358 151.594 255.7 171.12 236.174L271.529 135.765L371.231 235.467C390.757 254.993 390.757 286.651 371.231 306.177L270.822 406.587L171.12 306.884Z" fill="#5A7DDB"/>
<path d="M270.822 406.587L406.586 270.822V270.822C481.176 345.412 480.469 467.054 405.879 541.644V541.644L270.822 406.587Z" fill="#52E8E5"/>
<path d="M405.879 541.644V541.644C480.47 467.054 602.111 466.347 676.701 540.937V540.937L540.937 676.701L405.879 541.644Z" fill="#FB435F"/>
<path d="M271.529 135.764L407.294 -3.8147e-06L474.469 67.1751C511.959 104.665 511.959 165.449 474.469 202.94V202.94C436.979 240.43 376.195 240.43 338.704 202.94L271.529 135.764Z" fill="#F38033"/>
<path d="M406.586 270.822V270.822C481.177 196.232 602.818 195.525 677.408 270.115V270.115L541.644 405.879L406.586 270.822Z" fill="#FB435F"/>
<path d="M677.408 541.644L540.937 405.172L675.994 270.115L741.755 335.876C780.807 374.928 780.807 438.245 741.755 477.297L677.408 541.644Z" fill="#52E8E5"/>
</svg>
