<svg width="156" height="37" viewBox="0 0 156 37" fill="none" xmlns="http://www.w3.org/2000/svg">
<path d="M142.364 9.28571H144.507V11.4286H142.364V9.28571ZM140.221 9.28571H142.364V11.4286H140.221V9.28571ZM140.221 11.4286H142.364V13.5714H140.221V11.4286ZM142.364 11.4286H144.507V13.5714H142.364V11.4286ZM144.507 9.28571H146.65V11.4286H144.507V9.28571ZM146.65 9.28571H148.792V11.4286H146.65V9.28571ZM148.792 9.28571H150.935V11.4286H148.792V9.28571ZM148.792 11.4286H150.935V13.5714H148.792V11.4286ZM146.65 11.4286H148.792V13.5714H146.65V11.4286ZM148.792 15.7143H150.935V17.8571H148.792V15.7143ZM150.935 11.4286H153.078V13.5714H150.935V11.4286ZM150.935 13.5714H153.078V15.7143H150.935V13.5714ZM150.935 15.7143H153.078V17.8571H150.935V15.7143ZM150.935 17.8571H153.078V20H150.935V17.8571ZM150.935 20H153.078V22.1429H150.935V20ZM150.935 22.1429H153.078V24.2857H150.935V22.1429ZM148.792 22.1429H150.935V24.2857H148.792V22.1429ZM148.792 20H150.935V22.1429H148.792V20ZM148.792 17.8571H150.935V20H148.792V17.8571ZM148.792 13.5714H150.935V15.7143H148.792V13.5714ZM146.65 22.1429H148.792V24.2857H146.65V22.1429ZM148.792 24.2857H150.935V26.4286H148.792V24.2857ZM146.65 24.2857H148.792V26.4286H146.65V24.2857ZM144.507 24.2857H146.65V26.4286H144.507V24.2857ZM142.364 24.2857H144.507V26.4286H142.364V24.2857ZM140.221 24.2857H142.364V26.4286H140.221V24.2857ZM140.221 22.1429H142.364V24.2857H140.221V22.1429ZM142.364 22.1429H144.507V24.2857H142.364V22.1429ZM140.221 20H142.364V22.1429H140.221V20ZM138.078 22.1429H140.221V24.2857H138.078V22.1429ZM138.078 20H140.221V22.1429H138.078V20ZM138.078 17.8571H140.221V20H138.078V17.8571ZM138.078 15.7143H140.221V17.8571H138.078V15.7143ZM138.078 13.5714H140.221V15.7143H138.078V13.5714ZM138.078 11.4286H140.221V13.5714H138.078V11.4286ZM140.221 13.5714H142.364V15.7143H140.221V13.5714ZM140.221 15.7143H142.364V17.8571H140.221V15.7143ZM140.221 17.8571H142.364V20H140.221V17.8571ZM144.507 22.1429H146.65V24.2857H144.507V22.1429ZM144.507 11.4286H146.65V13.5714H144.507V11.4286Z" fill="#FDF9F0"/>
<path d="M131.633 5H135.919V9.28571H131.633V5ZM131.633 11.4286H135.919V26.4286H131.633V11.4286Z" fill="#FDF9F0"/>
<path d="M125.188 22.1429H127.33V24.2857H125.188V22.1429ZM127.33 22.1429H129.473V24.2857H127.33V22.1429ZM127.33 24.2857H129.473V26.4286H127.33V24.2857ZM125.188 24.2857H127.33V26.4286H125.188V24.2857Z" fill="#FDF9F0"/>
<path d="M110.188 11.4286H112.33V13.5714H110.188V11.4286ZM112.33 13.5714H114.473V15.7143H112.33V13.5714ZM110.188 13.5714H112.33V15.7143H110.188V13.5714ZM110.188 15.7143H112.33V17.8571H110.188V15.7143ZM112.33 15.7143H114.473V17.8571H112.33V15.7143ZM112.33 17.8571H114.473V20H112.33V17.8571ZM114.473 17.8571H116.616V20H114.473V17.8571ZM116.616 17.8571H118.759V20H116.616V17.8571ZM118.759 15.7143H120.902V17.8571H118.759V15.7143ZM116.616 15.7143H118.759V17.8571H116.616V15.7143ZM114.473 15.7143H116.616V17.8571H114.473V15.7143ZM118.759 17.8571H120.902V20H118.759V17.8571ZM120.902 17.8571H123.045V20H120.902V17.8571ZM120.902 20H123.045V22.1429H120.902V20ZM118.759 20H120.902V22.1429H118.759V20ZM118.759 22.1429H120.902V24.2857H118.759V22.1429ZM120.902 22.1429H123.045V24.2857H120.902V22.1429ZM118.759 24.2857H120.902V26.4286H118.759V24.2857ZM116.616 22.1429H118.759V24.2857H116.616V22.1429ZM114.473 22.1429H116.616V24.2857H114.473V22.1429ZM112.33 22.1429H114.473V24.2857H112.33V22.1429ZM110.188 22.1429H112.33V24.2857H110.188V22.1429ZM112.33 24.2857H114.473V26.4286H112.33V24.2857ZM114.473 24.2857H116.616V26.4286H114.473V24.2857ZM116.616 24.2857H118.759V26.4286H116.616V24.2857ZM120.902 11.4286H123.045V13.5714H120.902V11.4286ZM118.759 11.4286H120.902V13.5714H118.759V11.4286ZM118.759 9.28571H120.902V11.4286H118.759V9.28571ZM116.616 9.28571H118.759V11.4286H116.616V9.28571ZM114.473 9.28571H116.616V11.4286H114.473V9.28571ZM112.33 9.28571H114.473V11.4286H112.33V9.28571ZM112.33 11.4286H114.473V13.5714H112.33V11.4286ZM114.473 11.4286H116.616V13.5714H114.473V11.4286ZM116.616 11.4286H118.759V13.5714H116.616V11.4286Z" fill="#FDF9F0"/>
<path d="M93.0391 11.4286H95.1819V13.5714H93.0391V11.4286ZM93.0391 9.28571H95.1819V11.4286H93.0391V9.28571ZM95.1819 9.28571H97.3248V11.4286H95.1819V9.28571ZM95.1819 11.4286H97.3248V13.5714H95.1819V11.4286ZM95.1819 13.5714H97.3248V15.7143H95.1819V13.5714ZM95.1819 15.7143H97.3248V17.8571H95.1819V15.7143ZM95.1819 17.8571H97.3248V20H95.1819V17.8571ZM93.0391 17.8571H95.1819V20H93.0391V17.8571ZM93.0391 15.7143H95.1819V17.8571H93.0391V15.7143ZM93.0391 13.5714H95.1819V15.7143H93.0391V13.5714ZM93.0391 20H95.1819V22.1429H93.0391V20ZM95.1819 20H97.3248V22.1429H95.1819V20ZM95.1819 22.1429H97.3248V24.2857H95.1819V22.1429ZM95.1819 24.2857H97.3248V26.4286H95.1819V24.2857ZM93.0391 24.2857H95.1819V26.4286H93.0391V24.2857ZM93.0391 22.1429H95.1819V24.2857H93.0391V22.1429ZM103.753 24.2857H105.896V26.4286H103.753V24.2857ZM105.896 22.1429H108.039V24.2857H105.896V22.1429ZM105.896 20H108.039V22.1429H105.896V20ZM105.896 17.8571H108.039V20H105.896V17.8571ZM105.896 15.7143H108.039V17.8571H105.896V15.7143ZM105.896 13.5714H108.039V15.7143H105.896V13.5714ZM105.896 11.4286H108.039V13.5714H105.896V11.4286ZM103.753 15.7143H105.896V17.8571H103.753V15.7143ZM103.753 17.8571H105.896V20H103.753V17.8571ZM103.753 20H105.896V22.1429H103.753V20ZM103.753 22.1429H105.896V24.2857H103.753V22.1429ZM103.753 13.5714H105.896V15.7143H103.753V13.5714ZM97.3248 11.4286H99.4676V13.5714H97.3248V11.4286ZM99.4676 11.4286H101.61V13.5714H99.4676V11.4286ZM101.61 11.4286H103.753V13.5714H101.61V11.4286ZM101.61 9.28571H103.753V11.4286H101.61V9.28571ZM103.753 9.28571H105.896V11.4286H103.753V9.28571ZM103.753 11.4286H105.896V13.5714H103.753V11.4286ZM99.4676 9.28571H101.61V11.4286H99.4676V9.28571ZM93.0391 5H95.1819V7.14286H93.0391V5ZM95.1819 5H97.3248V7.14286H95.1819V5ZM95.1819 7.14286H97.3248V9.28571H95.1819V7.14286ZM93.0391 7.14286H95.1819V9.28571H93.0391V7.14286ZM97.3248 24.2857H99.4676V26.4286H97.3248V24.2857ZM99.4676 24.2857H101.61V26.4286H99.4676V24.2857ZM101.61 24.2857H103.753V26.4286H101.61V24.2857ZM101.61 22.1429H103.753V24.2857H101.61V22.1429ZM99.4676 22.1429H101.61V24.2857H99.4676V22.1429ZM97.3248 22.1429H99.4676V24.2857H97.3248V22.1429Z" fill="#FDF9F0"/>
<path d="M88.7478 26.4286H86.6049V24.2857H88.7478V26.4286ZM88.7478 24.2857H86.6049V22.1429H88.7478V24.2857ZM86.6049 24.2857H84.4621V22.1429H86.6049V24.2857ZM84.4621 26.4286H82.3192V24.2857H84.4621V26.4286ZM82.3192 26.4286H80.1763V24.2857H82.3192V26.4286ZM80.1763 26.4286H78.0335V24.2857H80.1763V26.4286ZM80.1763 24.2857H78.0335V22.1429H80.1763V24.2857ZM82.3192 24.2857H80.1763V22.1429H82.3192V24.2857ZM78.0335 24.2857H75.8906V22.1429H78.0335V24.2857ZM78.0335 22.1429H75.8906V20H78.0335V22.1429ZM78.0335 13.5714H75.8906V11.4286H78.0335V13.5714ZM80.1763 13.5714H78.0335V11.4286H80.1763V13.5714ZM80.1763 22.1429H78.0335V20H80.1763V22.1429ZM82.3192 13.5714H80.1763V11.4286H82.3192V13.5714ZM80.1763 11.4286H78.0335V9.28571H80.1763V11.4286ZM82.3192 11.4286H80.1763V9.28571H82.3192V11.4286ZM84.4621 11.4286H82.3192V9.28571H84.4621V11.4286ZM86.6049 11.4286H84.4621V9.28571H86.6049V11.4286ZM88.7478 11.4286H86.6049V9.28571H88.7478V11.4286ZM88.7478 13.5714H86.6049V11.4286H88.7478V13.5714ZM86.6049 13.5714H84.4621V11.4286H86.6049V13.5714ZM88.7478 15.7143H86.6049V13.5714H88.7478V15.7143ZM90.8906 13.5714H88.7478V11.4286H90.8906V13.5714ZM90.8906 15.7143H88.7478V13.5714H90.8906V15.7143ZM90.8906 17.8571H88.7478V15.7143H90.8906V17.8571ZM90.8906 20H88.7478V17.8571H90.8906V20ZM90.8906 22.1429H88.7478V20H90.8906V22.1429ZM90.8906 24.2857H88.7478V22.1429H90.8906V24.2857ZM88.7478 22.1429H86.6049V20H88.7478V22.1429ZM88.7478 20H86.6049V17.8571H88.7478V20ZM88.7478 17.8571H86.6049V15.7143H88.7478V17.8571ZM84.4621 13.5714H82.3192V11.4286H84.4621V13.5714ZM84.4621 24.2857H82.3192V22.1429H84.4621V24.2857ZM88.7478 24.2857H90.8906V26.4286H88.7478V24.2857ZM84.4621 15.7143H86.6049V17.8571H84.4621V15.7143ZM82.3192 15.7143H84.4621V17.8571H82.3192V15.7143ZM80.1763 15.7143H82.3192V17.8571H80.1763V15.7143ZM78.0335 15.7143H80.1763V17.8571H78.0335V15.7143ZM75.8906 17.8571H78.0335V20H75.8906V17.8571ZM78.0335 17.8571H80.1763V20H78.0335V17.8571ZM84.4621 17.8571H86.6049V20H84.4621V17.8571ZM82.3192 17.8571H84.4621V20H82.3192V17.8571ZM80.1763 17.8571H82.3192V20H80.1763V17.8571Z" fill="#FDF9F0"/>
<path d="M69.4453 5H71.5882V7.14286H69.4453V5ZM71.5882 5H73.731V7.14286H71.5882V5ZM71.5882 7.14286H73.731V9.28571H71.5882V7.14286ZM71.5882 9.28571H73.731V11.4286H71.5882V9.28571ZM71.5882 11.4286H73.731V13.5714H71.5882V11.4286ZM71.5882 13.5714H73.731V15.7143H71.5882V13.5714ZM71.5882 15.7143H73.731V17.8571H71.5882V15.7143ZM69.4453 15.7143H71.5882V17.8571H69.4453V15.7143ZM69.4453 17.8571H71.5882V20H69.4453V17.8571ZM69.4453 20H71.5882V22.1429H69.4453V20ZM69.4453 22.1429H71.5882V24.2857H69.4453V22.1429ZM69.4453 24.2857H71.5882V26.4286H69.4453V24.2857ZM71.5882 24.2857H73.731V26.4286H71.5882V24.2857ZM71.5882 22.1429H73.731V24.2857H71.5882V22.1429ZM71.5882 20H73.731V22.1429H71.5882V20ZM71.5882 17.8571H73.731V20H71.5882V17.8571ZM69.4453 13.5714H71.5882V15.7143H69.4453V13.5714ZM69.4453 11.4286H71.5882V13.5714H69.4453V11.4286ZM69.4453 9.28571H71.5882V11.4286H69.4453V9.28571ZM69.4453 7.14286H71.5882V9.28571H69.4453V7.14286Z" fill="#FDF9F0"/>
<path d="M67.2969 11.4286V13.5714H65.154V11.4286H67.2969ZM67.2969 9.28571V11.4286H65.154V9.28571H67.2969ZM65.154 9.28571V11.4286H63.0112V9.28571H65.154ZM65.154 11.4286V13.5714H63.0112V11.4286H65.154ZM65.154 13.5714V15.7143H63.0112V13.5714H65.154ZM65.154 15.7143V17.8571H63.0112V15.7143H65.154ZM65.154 17.8571V20H63.0112V17.8571H65.154ZM67.2969 17.8571V20H65.154V17.8571H67.2969ZM67.2969 15.7143V17.8571H65.154V15.7143H67.2969ZM67.2969 13.5714V15.7143H65.154V13.5714H67.2969ZM67.2969 20V22.1429H65.154V20H67.2969ZM65.154 20V22.1429H63.0112V20H65.154ZM65.154 22.1429V24.2857H63.0112V22.1429H65.154ZM65.154 24.2857V26.4286H63.0112V24.2857H65.154ZM67.2969 24.2857V26.4286H65.154V24.2857H67.2969ZM67.2969 22.1429V24.2857H65.154V22.1429H67.2969ZM56.5826 24.2857V26.4286H54.4397V24.2857H56.5826ZM54.4397 22.1429V24.2857H52.2969V22.1429H54.4397ZM54.4397 20V22.1429H52.2969V20H54.4397ZM54.4397 17.8571V20H52.2969V17.8571H54.4397ZM54.4397 15.7143V17.8571H52.2969V15.7143H54.4397ZM54.4397 13.5714V15.7143H52.2969V13.5714H54.4397ZM54.4397 11.4286V13.5714H52.2969V11.4286H54.4397ZM56.5826 15.7143V17.8571H54.4397V15.7143H56.5826ZM56.5826 17.8571V20H54.4397V17.8571H56.5826ZM56.5826 20V22.1429H54.4397V20H56.5826ZM56.5826 22.1429V24.2857H54.4397V22.1429H56.5826ZM56.5826 13.5714V15.7143H54.4397V13.5714H56.5826ZM58.7254 11.4286V13.5714H56.5826V11.4286H58.7254ZM58.7254 9.28571V11.4286H56.5826V9.28571H58.7254ZM56.5826 9.28571V11.4286H54.4397V9.28571H56.5826ZM56.5826 11.4286V13.5714H54.4397V11.4286H56.5826ZM60.8683 9.28571V11.4286H58.7254V9.28571H60.8683ZM67.2969 5V7.14286H65.154V5H67.2969ZM65.154 5V7.14286H63.0112V5H65.154ZM65.154 7.14286V9.28571H63.0112V7.14286H65.154ZM67.2969 7.14286V9.28571H65.154V7.14286H67.2969ZM60.8683 24.2857V26.4286H58.7254V24.2857H60.8683ZM58.7254 24.2857V26.4286H56.5826V24.2857H58.7254ZM58.7254 22.1429V24.2857H56.5826V22.1429H58.7254ZM60.8683 22.1429V24.2857H58.7254V22.1429H60.8683ZM63.0112 22.1429V24.2857H60.8683V22.1429H63.0112ZM63.0112 9.28571V11.4286H60.8683V9.28571H63.0112ZM63.0112 11.4286V13.5714H60.8683V11.4286H63.0112ZM60.8683 11.4286V13.5714H58.7254V11.4286H60.8683Z" fill="#FDF9F0"/>
<path d="M39.4342 9.28571H41.577V11.4286H39.4342V9.28571ZM37.2913 9.28571H39.4342V11.4286H37.2913V9.28571ZM37.2913 11.4286H39.4342V13.5714H37.2913V11.4286ZM39.4342 11.4286H41.577V13.5714H39.4342V11.4286ZM41.577 9.28571H43.7199V11.4286H41.577V9.28571ZM43.7199 9.28571H45.8627V11.4286H43.7199V9.28571ZM45.8627 9.28571H48.0056V11.4286H45.8627V9.28571ZM45.8627 11.4286H48.0056V13.5714H45.8627V11.4286ZM43.7199 11.4286H45.8627V13.5714H43.7199V11.4286ZM45.8627 15.7143H48.0056V17.8571H45.8627V15.7143ZM48.0056 11.4286H50.1484V13.5714H48.0056V11.4286ZM48.0056 13.5714H50.1484V15.7143H48.0056V13.5714ZM48.0056 15.7143H50.1484V17.8571H48.0056V15.7143ZM48.0056 17.8571H50.1484V20H48.0056V17.8571ZM48.0056 20H50.1484V22.1429H48.0056V20ZM48.0056 22.1429H50.1484V24.2857H48.0056V22.1429ZM45.8627 22.1429H48.0056V24.2857H45.8627V22.1429ZM45.8627 20H48.0056V22.1429H45.8627V20ZM45.8627 17.8571H48.0056V20H45.8627V17.8571ZM45.8627 13.5714H48.0056V15.7143H45.8627V13.5714ZM43.7199 22.1429H45.8627V24.2857H43.7199V22.1429ZM45.8627 24.2857H48.0056V26.4286H45.8627V24.2857ZM43.7199 24.2857H45.8627V26.4286H43.7199V24.2857ZM41.577 24.2857H43.7199V26.4286H41.577V24.2857ZM39.4342 24.2857H41.577V26.4286H39.4342V24.2857ZM37.2913 24.2857H39.4342V26.4286H37.2913V24.2857ZM37.2913 22.1429H39.4342V24.2857H37.2913V22.1429ZM39.4342 22.1429H41.577V24.2857H39.4342V22.1429ZM37.2913 20H39.4342V22.1429H37.2913V20ZM35.1484 22.1429H37.2913V24.2857H35.1484V22.1429ZM35.1484 20H37.2913V22.1429H35.1484V20ZM35.1484 17.8571H37.2913V20H35.1484V17.8571ZM35.1484 15.7143H37.2913V17.8571H35.1484V15.7143ZM35.1484 13.5714H37.2913V15.7143H35.1484V13.5714ZM35.1484 11.4286H37.2913V13.5714H35.1484V11.4286ZM37.2913 13.5714H39.4342V15.7143H37.2913V13.5714ZM37.2913 15.7143H39.4342V17.8571H37.2913V15.7143ZM37.2913 17.8571H39.4342V20H37.2913V17.8571ZM41.577 22.1429H43.7199V24.2857H41.577V22.1429ZM41.577 11.4286H43.7199V13.5714H41.577V11.4286Z" fill="#FDF9F0"/>
<path d="M20.1484 11.4286H22.2913V13.5714H20.1484V11.4286ZM20.1484 9.28571H22.2913V11.4286H20.1484V9.28571ZM22.2913 9.28571H24.4342V11.4286H22.2913V9.28571ZM22.2913 11.4286H24.4342V13.5714H22.2913V11.4286ZM22.2913 13.5714H24.4342V15.7143H22.2913V13.5714ZM22.2913 15.7143H24.4342V17.8571H22.2913V15.7143ZM22.2913 17.8571H24.4342V20H22.2913V17.8571ZM20.1484 17.8571H22.2913V20H20.1484V17.8571ZM20.1484 15.7143H22.2913V17.8571H20.1484V15.7143ZM20.1484 13.5714H22.2913V15.7143H20.1484V13.5714ZM20.1484 20H22.2913V22.1429H20.1484V20ZM22.2913 20H24.4342V22.1429H22.2913V20ZM22.2913 22.1429H24.4342V24.2857H22.2913V22.1429ZM22.2913 24.2857H24.4342V26.4286H22.2913V24.2857ZM20.1484 24.2857H22.2913V26.4286H20.1484V24.2857ZM20.1484 22.1429H22.2913V24.2857H20.1484V22.1429ZM24.4342 11.4286H26.577V13.5714H24.4342V11.4286ZM26.577 11.4286H28.7199V13.5714H26.577V11.4286ZM28.7199 11.4286H30.8627V13.5714H28.7199V11.4286ZM28.7199 9.28571H30.8627V11.4286H28.7199V9.28571ZM26.577 9.28571H28.7199V11.4286H26.577V9.28571ZM24.4342 13.5714H26.577V15.7143H24.4342V13.5714ZM30.8627 11.4286H33.0056V13.5714H30.8627V11.4286ZM28.7199 13.5714H30.8627V15.7143H28.7199V13.5714Z" fill="#FDF9F0"/>
<path d="M3 11.4286H5.14286V13.5714H3V11.4286ZM3 9.28571H5.14286V11.4286H3V9.28571ZM5.14286 9.28571H7.28572V11.4286H5.14286V9.28571ZM5.14286 11.4286H7.28572V13.5714H5.14286V11.4286ZM5.14286 13.5714H7.28572V15.7143H5.14286V13.5714ZM5.14286 15.7143H7.28572V17.8571H5.14286V15.7143ZM5.14286 17.8571H7.28572V20H5.14286V17.8571ZM3 17.8571H5.14286V20H3V17.8571ZM3 15.7143H5.14286V17.8571H3V15.7143ZM3 13.5714H5.14286V15.7143H3V13.5714ZM3 20H5.14286V22.1429H3V20ZM5.14286 20H7.28572V22.1429H5.14286V20ZM5.14286 22.1429H7.28572V24.2857H5.14286V22.1429ZM5.14286 24.2857H7.28572V26.4286H5.14286V24.2857ZM3 24.2857H5.14286V26.4286H3V24.2857ZM3 22.1429H5.14286V24.2857H3V22.1429ZM13.7143 24.2857H15.8571V26.4286H13.7143V24.2857ZM15.8571 22.1429H18V24.2857H15.8571V22.1429ZM15.8571 20H18V22.1429H15.8571V20ZM15.8571 17.8571H18V20H15.8571V17.8571ZM15.8571 15.7143H18V17.8571H15.8571V15.7143ZM15.8571 13.5714H18V15.7143H15.8571V13.5714ZM15.8571 11.4286H18V13.5714H15.8571V11.4286ZM13.7143 15.7143H15.8571V17.8571H13.7143V15.7143ZM13.7143 17.8571H15.8571V20H13.7143V17.8571ZM13.7143 20H15.8571V22.1429H13.7143V20ZM13.7143 22.1429H15.8571V24.2857H13.7143V22.1429ZM13.7143 13.5714H15.8571V15.7143H13.7143V13.5714ZM7.28572 11.4286H9.42857V13.5714H7.28572V11.4286ZM9.42857 11.4286H11.5714V13.5714H9.42857V11.4286ZM11.5714 11.4286H13.7143V13.5714H11.5714V11.4286ZM11.5714 9.28571H13.7143V11.4286H11.5714V9.28571ZM13.7143 9.28571H15.8571V11.4286H13.7143V9.28571ZM13.7143 11.4286H15.8571V13.5714H13.7143V11.4286ZM9.42857 9.28571H11.5714V11.4286H9.42857V9.28571ZM7.28572 24.2857H9.42857V26.4286H7.28572V24.2857ZM9.42857 24.2857H11.5714V26.4286H9.42857V24.2857ZM11.5714 24.2857H13.7143V26.4286H11.5714V24.2857ZM11.5714 22.1429H13.7143V24.2857H11.5714V22.1429ZM9.42857 22.1429H11.5714V24.2857H9.42857V22.1429ZM7.28572 22.1429H9.42857V24.2857H7.28572V22.1429ZM3 26.4286H5.14286V28.5714H3V26.4286ZM5.14286 26.4286H7.28572V28.5714H5.14286V26.4286ZM5.14286 28.5714H7.28572V30.7143H5.14286V28.5714ZM3 28.5714H5.14286V30.7143H3V28.5714Z" fill="#FDF9F0"/>
</svg>
