<svg width="51" height="35" viewBox="0 0 51 35" fill="none" xmlns="http://www.w3.org/2000/svg">
<path d="M26.2388 9.57783C19.2798 3.6058 8.74741 0.089158 4.59226 1.79598C0.437116 3.5028 -0.242218 27.335 4.73508 31.7396C9.71238 36.1442 26.3078 24.0452 26.3078 24.0452C26.3078 24.0452 40.4316 34.0999 45.9705 31.5429C51.5093 28.986 49.6004 2.84657 45.8277 1.59931C42.0549 0.352044 30.8838 4.99577 26.2388 9.57783Z" fill="url(#paint0_linear_43_25)"/>
<path d="M0.0805039 15.7444C0.0464058 19.1621 0.301818 22.6903 0.892493 25.6682C1.18777 27.1568 1.57217 28.5352 2.06062 29.7046C2.54326 30.8601 3.16075 31.8934 3.96725 32.6071L4.12814 32.7428C5.81438 34.1011 8.21213 34.0386 10.4633 33.5248C12.8601 32.9777 15.5027 31.8266 17.9212 30.5724C20.3521 29.3117 22.6168 27.9152 24.2695 26.8372C25.0972 26.2973 25.7746 25.8351 26.2461 25.5073C26.27 25.4907 26.2931 25.4739 26.316 25.458C26.7185 25.7312 27.2854 26.1094 27.9768 26.5518C29.406 27.4663 31.376 28.6627 33.5281 29.7808C35.6723 30.8947 38.0382 31.9526 40.2521 32.5664C42.3434 33.1462 44.537 33.399 46.2876 32.6685L46.4558 32.5945C47.4957 32.1145 48.2264 31.1524 48.7499 30.0822C49.2824 28.9936 49.6719 27.6482 49.9529 26.1785C50.5159 23.2339 50.6783 19.5938 50.5482 16.0376C50.418 12.4782 49.9921 8.93708 49.3481 6.18117C49.0273 4.80832 48.6421 3.58417 48.1884 2.63828C47.9615 2.16519 47.7009 1.72637 47.3969 1.36612C47.1165 1.03374 46.751 0.711377 46.2856 0.533239L46.1911 0.499378C44.9491 0.0887702 43.2933 0.199665 41.6004 0.539749C39.859 0.889577 37.8911 1.52238 35.9204 2.33106C32.387 3.78098 28.7 5.85674 26.1975 8.03884C22.7418 5.26086 18.5895 3.06346 14.7476 1.71451C12.6747 0.986706 10.6631 0.495479 8.87431 0.300687C7.11058 0.108645 5.44908 0.191543 4.15189 0.724392L4.06648 0.761373C3.19088 1.15839 2.58951 2.01455 2.16267 2.87929C1.6998 3.81709 1.32701 5.00334 1.03135 6.32188C0.438314 8.96669 0.114592 12.3287 0.0805039 15.7444ZM4.73494 31.7396C-0.24233 27.335 0.437043 3.50322 4.59212 1.79613L4.79159 1.71977C9.07562 0.199669 19.3885 3.69906 26.2387 9.57776C30.8837 4.99571 42.0549 0.352199 45.8276 1.59946C49.5708 2.83752 51.4792 28.5792 46.0987 31.4786L45.9705 31.543C40.4368 34.0975 26.3341 24.064 26.3077 24.0452C26.3077 24.0452 9.97063 35.9558 4.85381 31.8397L4.73494 31.7396Z" fill="#141414"/>
<path d="M26.1982 12.6002C19.6461 7.09856 9.72666 3.35287 5.81399 4.92585C1.90131 6.49883 1.25935 28.4566 5.94557 32.5144C10.6318 36.5721 26.2593 25.423 26.2593 25.423C26.2593 25.423 39.5574 34.6855 44.7731 32.3292C49.9887 29.9728 48.1938 5.88946 44.6415 4.74066C41.0892 3.59186 30.5723 8.37809 26.1982 12.6002Z" fill="url(#paint1_linear_43_25)"/>
<path d="M2.07594 17.7824C2.04375 20.9081 2.28244 24.1245 2.8302 26.828C3.10406 28.1797 3.45797 29.4169 3.90136 30.4558C4.34191 31.488 4.88729 32.3643 5.56626 32.9522L5.69912 33.0617C7.09229 34.1593 9.13391 34.1503 11.2229 33.6835C13.4163 33.1934 15.859 32.1551 18.1218 31.0067C20.3907 29.8552 22.5078 28.5778 24.0557 27.5899C24.8303 27.0955 25.4638 26.6726 25.9043 26.373C26.0441 26.2779 26.1638 26.1941 26.2632 26.1254C26.3375 26.1755 26.4229 26.2342 26.52 26.2988C26.8976 26.55 27.442 26.9054 28.1111 27.3243C29.4486 28.1616 31.2896 29.2553 33.298 30.276C35.3024 31.2948 37.4936 32.2513 39.5283 32.8031C41.5359 33.3475 43.5148 33.5331 45.0116 32.8569C45.8364 32.4842 46.4574 31.7153 46.9284 30.7732C47.4036 29.8229 47.7604 28.6288 48.0208 27.2972C48.5419 24.6315 48.6953 21.3162 48.574 18.0606C48.4525 14.8034 48.0545 11.5723 47.4572 9.0703C47.1592 7.82181 46.8064 6.73141 46.4011 5.90434C46.1984 5.49066 45.9739 5.12536 45.7241 4.83562C45.4919 4.56631 45.2145 4.33604 44.886 4.21296L44.8195 4.18952C43.7749 3.85176 42.321 3.96797 40.748 4.32545C39.1488 4.68889 37.3288 5.3255 35.4964 6.12565C32.039 7.63535 28.46 9.76215 26.1746 11.83C22.9128 9.17796 18.9134 6.95986 15.2205 5.56817C13.2979 4.84364 11.4433 4.33701 9.80664 4.11369C8.18381 3.89228 6.71239 3.94057 5.59781 4.38865L5.47064 4.44506C4.84398 4.75044 4.36335 5.38987 3.98709 6.13567C3.57514 6.9522 3.23439 8.0044 2.96029 9.19995C2.41122 11.595 2.10813 14.6578 2.07594 17.7824ZM3.2343 17.7943C3.26591 14.7256 3.56399 11.7502 4.08928 9.45888C4.35235 8.3114 4.66746 7.35863 5.02119 6.65747C5.36282 5.98031 5.69681 5.6252 5.9752 5.48784L6.03013 5.46307C6.87188 5.12473 8.10783 5.05102 9.64998 5.26143C11.1784 5.46996 12.9467 5.94892 14.812 6.65188C18.5443 8.05839 22.604 10.3388 25.8256 13.0439L26.225 13.3791L26.6003 13.0168C28.7196 10.9712 32.3747 8.7526 35.9599 7.18709C37.7474 6.40657 39.4961 5.7978 41.0045 5.455C42.539 5.10627 43.7317 5.05529 44.4632 5.29183L44.4975 5.30486C44.5827 5.34141 44.7014 5.42332 44.8469 5.59202C45.0111 5.78242 45.1849 6.05478 45.361 6.41417C45.7134 7.13324 46.0425 8.13157 46.3308 9.33923C46.9061 11.7495 47.2972 14.9018 47.4166 18.1035C47.5361 21.3069 47.3822 24.5264 46.884 27.0749C46.6347 28.3502 46.3035 29.433 45.8925 30.2552C45.4773 31.0855 45.0136 31.5851 44.5345 31.8015C43.4236 32.3034 41.7841 32.2147 39.8314 31.6852C37.9059 31.163 35.7948 30.2457 33.8228 29.2434C31.8546 28.2431 30.0449 27.1683 28.7259 26.3426C28.067 25.93 27.5316 25.5804 27.1617 25.3342C26.9767 25.2112 26.8331 25.1139 26.7361 25.0478C26.6877 25.0148 26.6509 24.9895 26.6264 24.9726C26.6142 24.9641 26.6048 24.958 26.5988 24.9538C26.5958 24.9518 26.5934 24.95 26.592 24.949L26.5905 24.9479C26.5904 24.9478 26.5904 24.9479 26.2594 25.423L26.5901 24.9479L26.2553 24.7146L25.9227 24.9514L25.9224 24.9518C25.922 24.9521 25.9213 24.9527 25.9205 24.9533C25.9188 24.9545 25.916 24.9562 25.9126 24.9586C25.9055 24.9637 25.8947 24.9716 25.8803 24.9818C25.8514 25.0022 25.8082 25.0325 25.7514 25.0721C25.6375 25.1516 25.4692 25.2683 25.253 25.4154C24.8205 25.7096 24.1964 26.1262 23.4327 26.6136C21.904 27.5893 19.8214 28.8453 17.5977 29.9738C15.3678 31.1055 13.0249 32.0937 10.9701 32.5528C8.94355 33.0056 7.37404 32.9052 6.41532 32.1515L6.32447 32.0765C5.83198 31.65 5.3726 30.9522 4.96662 30.0009C4.56346 29.0562 4.22934 27.8999 3.96553 26.5979C3.43795 23.9939 3.2027 20.8619 3.2343 17.7943Z" fill="#141414"/>
<path d="M26.237 11.83C20.0651 6.85107 10.7205 3.46223 7.03407 4.88677C3.3476 6.31131 2.73893 26.1875 7.15318 29.8597C11.5674 33.5319 26.2923 23.4371 26.2923 23.4371C26.2923 23.4371 38.8191 31.8191 43.7332 29.6852C48.6474 27.5513 46.9606 5.75157 43.6141 4.71231C40.2676 3.67304 30.3587 8.00736 26.237 11.83Z" fill="white"/>
<path d="M3.47661 16.524C3.44568 19.3572 3.6703 22.2745 4.18727 24.7282C4.44574 25.955 4.78027 27.08 5.20029 28.0259C5.61766 28.9658 6.13596 29.7668 6.78271 30.3048L6.90874 30.4049C8.23087 31.4058 10.1607 31.3942 12.1276 30.9716C14.1959 30.5272 16.4992 29.5863 18.6322 28.5459C20.7708 27.5028 22.7663 26.3457 24.2253 25.4508C24.9554 25.003 25.5528 24.6198 25.968 24.3483C26.095 24.2653 26.2045 24.1919 26.2961 24.1311C26.3639 24.1749 26.4413 24.2255 26.5284 24.2812C26.8843 24.5086 27.3972 24.8306 28.0278 25.2098C29.2881 25.9678 31.0231 26.9577 32.9158 27.8817C34.8049 28.8039 36.8707 29.67 38.7891 30.1695C40.6219 30.6468 42.4318 30.8203 43.83 30.2718L43.9639 30.2165C44.7493 29.8754 45.3416 29.1711 45.79 28.3097C46.2416 27.4421 46.5794 26.3541 46.8257 25.1447C47.3187 22.7238 47.4641 19.7165 47.3502 16.766C47.2362 13.8139 46.8615 10.8839 46.2978 8.61319C46.0165 7.48036 45.6825 6.48793 45.2977 5.73315C44.9544 5.06001 44.5063 4.44602 43.9077 4.20292L43.7857 4.15939C42.798 3.85266 41.4257 3.95853 39.9431 4.28254C38.4352 4.61205 36.7196 5.18892 34.9923 5.91389C31.7406 7.27859 28.3722 9.20074 26.2139 11.0731C23.1404 8.675 19.3761 6.67048 15.9006 5.4126C14.0884 4.75673 12.34 4.29816 10.797 4.09615C9.26759 3.89595 7.879 3.93938 6.82518 4.34661L6.70364 4.39847C6.10475 4.67905 5.6451 5.26691 5.28692 5.94887C4.89524 6.69459 4.57271 7.65322 4.31348 8.73878C3.79416 10.9136 3.50753 13.6917 3.47661 16.524ZM4.63497 16.5365C4.66526 13.7627 4.94623 11.0752 5.43988 9.0079C5.68713 7.97248 5.98248 7.11591 6.31242 6.48768C6.6308 5.88152 6.93896 5.56884 7.19278 5.44848L7.24282 5.42713C8.03222 5.12208 9.19431 5.05448 10.6467 5.24461C12.0854 5.43296 13.7502 5.8659 15.5065 6.50152C19.0208 7.77342 22.8424 9.83564 25.8735 12.2809L26.2634 12.5954L26.6309 12.2547C28.6233 10.4069 32.0632 8.39923 35.4404 6.98182C37.1237 6.27533 38.7705 5.72472 40.1905 5.41439C41.6357 5.09859 42.7568 5.05257 43.4423 5.26541L43.477 5.27806C43.6566 5.35408 43.9399 5.62062 44.2656 6.25915C44.5943 6.90379 44.9029 7.80194 45.1736 8.89229C45.7138 11.068 46.0811 13.9164 46.1928 16.8108C46.3047 19.7068 46.159 22.6146 45.6908 24.9137C45.4565 26.0642 45.1462 27.0376 44.7626 27.7747C44.3757 28.5178 43.9458 28.9614 43.5026 29.1539L43.4033 29.1947C42.3642 29.6008 40.8623 29.5125 39.0809 29.0487C37.2684 28.5767 35.2809 27.7474 33.424 26.8409C31.5708 25.9362 29.8668 24.9642 28.6248 24.2172C28.0043 23.8441 27.5002 23.5276 27.1519 23.305C26.9778 23.1938 26.8426 23.1061 26.7513 23.0464C26.7057 23.0165 26.6711 22.9935 26.6481 22.9783C26.6366 22.9706 26.628 22.9648 26.6224 22.961C26.6195 22.9592 26.6173 22.9578 26.6159 22.9569C26.6153 22.9565 26.6151 22.956 26.6148 22.9558L26.6144 22.9558L26.2884 22.7375L25.9648 22.9593L25.9644 22.9596C25.9641 22.9599 25.9636 22.9603 25.9629 22.9608C25.9613 22.9619 25.9587 22.9638 25.9554 22.9661L25.8032 23.0686C25.696 23.1405 25.5376 23.2459 25.3341 23.3789C24.9268 23.6452 24.3392 24.022 23.6199 24.4632C22.18 25.3463 20.2185 26.4836 18.1242 27.5051C16.0241 28.5294 13.8183 29.4234 11.8842 29.839C9.97377 30.2494 8.50161 30.1559 7.60829 29.4816L7.52351 29.4145C7.06679 29.0345 6.63851 28.411 6.25869 27.5556C5.88152 26.7062 5.56827 25.6646 5.32067 24.4894C4.82546 22.139 4.6047 19.3094 4.63497 16.5365Z" fill="#141414"/>
<path d="M8.53206 8.11517C6.02892 9.47846 6.10257 24.9221 8.61953 26.4545C11.1365 27.9869 18.9322 25.116 23.6476 20.2052C25.5098 18.2658 25.267 16.6201 23.6218 14.7999C17.4699 9.33461 11.0352 6.75188 8.53206 8.11517Z" fill="#141414"/>
<path d="M42.6384 8.22881C45.0464 9.54601 45.1188 24.7306 42.7244 26.2605C40.33 27.7904 31.5801 23.91 28.2861 20.3552C26.379 18.2971 26.7028 16.7456 28.2603 14.9408C34.0967 9.51044 40.2304 6.91161 42.6384 8.22881Z" fill="#141414"/>
<defs>
<linearGradient id="paint0_linear_43_25" x1="1.2389" y1="17.0836" x2="49.4261" y2="16.8538" gradientUnits="userSpaceOnUse">
<stop stop-color="#FB435F"/>
<stop offset="1" stop-color="#F38033"/>
</linearGradient>
<linearGradient id="paint1_linear_43_25" x1="2.65496" y1="19.0114" x2="48.0283" y2="18.795" gradientUnits="userSpaceOnUse">
<stop stop-color="#52E8E5"/>
<stop offset="1" stop-color="#5A7DDB"/>
</linearGradient>
</defs>
</svg>
