<svg width="183" height="183" viewBox="0 0 183 183" fill="none" xmlns="http://www.w3.org/2000/svg">
<rect width="182" height="182" rx="20" transform="matrix(0.00476944 0.999989 0.999989 -0.00476944 0 0.868042)" fill="black"/>
<path d="M27.9273 86.9136C27.8397 95.6921 28.4968 104.723 30.0016 112.309C30.7539 116.102 31.7249 119.569 32.9398 122.478C34.1471 125.368 35.6385 127.812 37.4887 129.449L37.8505 129.755C41.6516 132.815 47.2397 132.799 52.9849 131.488C59.0101 130.113 65.7231 127.198 71.9444 123.972C78.1818 120.737 84.0023 117.148 88.2582 114.372C90.3878 112.983 92.1298 111.795 93.3406 110.953C93.7435 110.673 94.0861 110.429 94.3664 110.231C94.5797 110.378 94.8287 110.55 95.113 110.744C96.1512 111.45 97.6481 112.449 99.4881 113.626C103.166 115.98 108.227 119.053 113.749 121.922C119.26 124.785 125.283 127.473 130.873 129.023C136.22 130.505 141.479 131.036 145.525 129.349L145.912 129.179C148.156 128.144 149.848 126.007 151.135 123.375C152.434 120.72 153.411 117.377 154.126 113.641C155.555 106.163 155.976 96.8572 155.642 87.7126C155.307 78.5639 154.213 69.4916 152.572 62.4702C151.753 58.9663 150.785 55.9136 149.676 53.602C149.122 52.446 148.51 51.4295 147.832 50.6254C147.202 49.8786 146.452 49.2419 145.564 48.9019L145.385 48.8383C142.555 47.9027 138.59 48.1182 134.26 48.988C129.868 49.8704 124.866 51.4764 119.824 53.5452C110.289 57.4578 100.408 63.1166 94.1176 68.915C85.1276 61.4585 74.0969 55.5494 63.9193 51.9759C58.6302 50.1188 53.5335 48.8788 49.0407 48.3896C44.5804 47.9039 40.5675 48.1412 37.5424 49.3839L37.1974 49.5408C35.5 50.3861 34.1934 52.1582 33.1651 54.2417C32.0393 56.5227 31.1055 59.4676 30.3534 62.8216C28.847 69.5401 28.0149 78.1376 27.9273 86.9136Z" fill="url(#paint0_linear_8_4)" stroke="black" stroke-width="3"/>
<path d="M94.0728 78.7548C77.1027 64.5053 51.411 54.8038 41.2771 58.8779C31.1431 62.952 29.4804 119.823 41.6179 130.333C53.7554 140.843 94.2312 111.966 94.2312 111.966C94.2312 111.966 128.674 135.957 142.183 129.853C155.691 123.75 151.042 61.3737 141.842 58.3982C132.641 55.4228 105.402 67.8193 94.0728 78.7548Z" fill="url(#paint1_linear_8_4)" stroke="black" stroke-width="3"/>
<path d="M94.1732 76.7598C78.1879 63.8642 53.9851 55.087 44.437 58.7767C34.8889 62.4663 33.3124 113.946 44.7455 123.457C56.1786 132.969 94.3166 106.823 94.3166 106.823C94.3166 106.823 126.761 128.532 139.489 123.006C152.217 117.479 147.848 61.0165 139.181 58.3248C130.513 55.6331 104.849 66.8591 94.1732 76.7598Z" fill="white" stroke="black" stroke-width="3"/>
<path d="M48.3166 67.1383C41.8334 70.6693 42.0242 110.669 48.5432 114.638C55.0622 118.607 75.2533 111.171 87.4664 98.452C92.2897 93.4289 91.6607 89.1664 87.3996 84.4521C71.4659 70.2967 54.7999 63.6074 48.3166 67.1383Z" fill="black"/>
<path d="M136.654 67.4327C142.89 70.8442 143.078 110.173 136.876 114.135C130.675 118.098 108.012 108.048 99.4807 98.8404C94.5413 93.5099 95.3798 89.4914 99.4138 84.8169C114.53 70.7521 130.417 64.0211 136.654 67.4327Z" fill="black"/>
<defs>
<linearGradient id="paint0_linear_8_4" x1="29.4272" y1="90.3669" x2="154.234" y2="89.7716" gradientUnits="userSpaceOnUse">
<stop stop-color="#FB435F"/>
<stop offset="1" stop-color="#F38033"/>
</linearGradient>
<linearGradient id="paint1_linear_8_4" x1="33.0951" y1="95.36" x2="150.614" y2="94.7995" gradientUnits="userSpaceOnUse">
<stop stop-color="#52E8E5"/>
<stop offset="1" stop-color="#5A7DDB"/>
</linearGradient>
</defs>
</svg>
